<?xml version="1.0" encoding="UTF-8"?>
<svg version="1.1" xmlns="http://www.w3.org/2000/svg" width="512" height="512">
<path d="M0 0 C10.26945664 8.56084687 17.1061442 20.75897322 19 34 C19.10942225 36.15309312 19.17502184 38.30869662 19.20532227 40.46435547 C19.22526749 41.72520966 19.24521271 42.98606384 19.26576233 44.28512573 C19.28274134 45.64581177 19.29962033 47.00649906 19.31640625 48.3671875 C19.33700116 49.77109351 19.35799826 51.17499368 19.37937927 52.57888794 C19.43433821 56.2580082 19.4838619 59.93718197 19.53222656 63.61639404 C19.58263385 67.37712313 19.63821913 71.13777536 19.69335938 74.8984375 C19.8006203 82.26555975 19.90213521 89.6327463 20 97 C20.68793137 96.85911453 21.37586273 96.71822906 22.0846405 96.57307434 C23.4372271 96.29870796 23.4372271 96.29870796 24.81713867 96.01879883 C25.71132004 95.83666336 26.6055014 95.65452789 27.52677917 95.46687317 C40.63534336 92.99235216 54.10341383 96.56830155 65 104 C71.68711342 109.21418095 77.08217727 115.11179134 82 122 C82.59167969 121.79503906 83.18335938 121.59007812 83.79296875 121.37890625 C84.58316406 121.10949219 85.37335938 120.84007812 86.1875 120.5625 C86.96480469 120.29566406 87.74210937 120.02882812 88.54296875 119.75390625 C101.69325398 115.71892207 115.47465458 117.36085483 127.7109375 123.3203125 C138.727892 129.52370534 146.34582833 137.69165666 152 149 C153.2375 148.67 154.475 148.34 155.75 148 C172.83425032 144.60755601 188.27052528 146.73176129 203 156 C213.36427179 163.32646799 220.62327015 175.24288881 223.58116531 187.50365067 C224.46493423 192.77111303 224.29439341 198.11210418 224.29052734 203.43896484 C224.29652202 204.78710804 224.30332971 206.13524782 224.31088257 207.48338318 C224.32847922 211.13125161 224.33323597 214.77902603 224.33451414 218.42693281 C224.33594277 220.71939136 224.3402263 223.0118266 224.34550858 225.30427933 C224.36400563 233.34186545 224.37218179 241.37938549 224.37060547 249.41699219 C224.36941225 256.83987528 224.39035282 264.26246375 224.4220928 271.68527257 C224.44853894 278.10533358 224.45896072 284.52530031 224.45769465 290.94541514 C224.45719214 294.75802061 224.46246651 298.57036558 224.48405075 302.3829155 C224.58162319 320.90487732 223.54254369 338.76405749 220 357 C219.83332321 357.86289391 219.66664642 358.72578781 219.49491882 359.61483002 C218.52015149 364.5978705 217.45012854 369.55175377 216.3125 374.5 C216.14292786 375.24858276 215.97335571 375.99716553 215.79864502 376.76843262 C210.03952462 402.16739245 203.02075799 427.18494198 195.75 452.1875 C195.45172302 453.21452026 195.15344604 454.24154053 194.84613037 455.29968262 C192.09765656 464.74309845 189.3370713 474.18643162 186.328125 483.55078125 C185.97137695 484.66751221 185.61462891 485.78424316 185.24707031 486.93481445 C182.70769367 493.17637156 179.10009841 497.94995079 173 501 C169.98191109 501.10705794 166.9864432 501.15222186 163.96774292 501.15390015 C162.54644489 501.16047353 162.54644489 501.16047353 161.09643376 501.1671797 C157.90136405 501.18060143 154.70632194 501.18675416 151.51123047 501.19287109 C149.22837702 501.20076948 146.94552482 501.20903826 144.66267395 501.21765137 C137.14752399 501.24390459 129.63236836 501.25918349 122.1171875 501.2734375 C119.53257366 501.27879605 116.94795986 501.28417355 114.3633461 501.28956985 C103.6128856 501.31120448 92.86242837 501.3300929 82.11195183 501.34119225 C79.3213793 501.34412195 76.53080681 501.3470836 73.74023438 501.35009766 C73.04665062 501.35084371 72.35306686 501.35158976 71.63846542 501.35235842 C60.40832983 501.36500605 49.17835279 501.39822012 37.94829129 501.43989949 C26.41753429 501.48234375 14.88688301 501.50548278 3.35604584 501.51111281 C-3.11763052 501.51476896 -9.59103832 501.5268186 -16.06464005 501.55921555 C-22.1566141 501.58926458 -28.24815665 501.59561895 -34.34018898 501.58383179 C-36.57507624 501.58361078 -38.80998333 501.5919379 -41.04480171 501.60948563 C-44.09900107 501.63215971 -47.15163347 501.6238895 -50.20584106 501.60800171 C-51.08776505 501.6218838 -51.96968903 501.63576588 -52.87833798 501.65006864 C-59.00551223 501.57167814 -63.31626068 500.03280846 -68 496 C-69.867292 493.55128185 -71.18604641 491.03089761 -72.5 488.25 C-72.89960938 487.45215088 -73.29921875 486.65430176 -73.7109375 485.83227539 C-75.16790995 482.9008188 -76.58509078 479.95199108 -78 477 C-78.61542168 475.72422281 -79.23133273 474.44868161 -79.84765625 473.17333984 C-80.17268631 472.50076141 -80.49771637 471.82818298 -80.83259583 471.13522339 C-81.1662767 470.44477936 -81.49995758 469.75433533 -81.84375 469.04296875 C-82.52958241 467.62306687 -83.21537291 466.20314474 -83.90112305 464.78320312 C-84.24638031 464.06849854 -84.59163757 463.35379395 -84.94735718 462.61743164 C-85.65081577 461.16063015 -86.35379613 459.70359764 -87.05630493 458.24633789 C-98.52008429 434.47768756 -112.15195689 412.27385258 -126.57128906 390.18945312 C-128.0896308 387.86264371 -129.60385325 385.53319411 -131.1171875 383.203125 C-134.40942475 378.13409324 -137.70448562 373.06690165 -141 368 C-144.8232376 362.12171616 -148.64564948 356.24289938 -152.46533203 350.36230469 C-153.45814145 348.83407944 -154.45128324 347.30607005 -155.44482422 345.77832031 C-166.44171954 328.86534935 -177.24756307 311.85237654 -187.52539062 294.49072266 C-188.50856973 292.83006152 -189.49424959 291.1708784 -190.48242188 289.51318359 C-203.00388633 268.48194565 -214.77977824 247.39113484 -208.9375 222.0625 C-204.65165381 208.96350532 -195.75658298 200.06210751 -184 193.5078125 C-170.68781555 186.81705313 -156.50479833 186.26697695 -142.36328125 190.734375 C-130.22150972 195.30340401 -122.48245744 201.94366076 -114.51953125 211.94140625 C-111.79482353 215.24907469 -108.93169181 218.37709076 -106 221.5 C-101.44512688 226.35848325 -97.16922706 231.33716194 -93.03515625 236.5625 C-90.83021579 239.20334999 -88.44447016 241.58143584 -86 244 C-85.99853344 242.91939206 -85.99706688 241.83878412 -85.99555588 240.72543049 C-85.95891827 214.40002813 -85.89941276 188.07475257 -85.81609726 161.74945545 C-85.77633237 149.01859648 -85.74392687 136.2877991 -85.72900391 123.55688477 C-85.71597423 112.45723146 -85.6889758 101.35771382 -85.64538693 90.25813693 C-85.62280194 84.38406012 -85.60708756 78.51015046 -85.60811615 72.63602638 C-85.6088645 67.09969801 -85.59084326 61.56373871 -85.55883217 56.02750587 C-85.55035933 54.00277389 -85.54856533 51.97800039 -85.55419731 49.95325851 C-85.5970784 32.15780714 -83.07109901 17.26538375 -70.60546875 3.58203125 C-51.10719487 -15.6315963 -21.34717163 -16.08438664 0 0 Z " fill="#181818" transform="translate(249,11)"/>
<path d="M0 0 C10.26945664 8.56084687 17.1061442 20.75897322 19 34 C19.10942225 36.15309312 19.17502184 38.30869662 19.20532227 40.46435547 C19.22526749 41.72520966 19.24521271 42.98606384 19.26576233 44.28512573 C19.28274134 45.64581177 19.29962033 47.00649906 19.31640625 48.3671875 C19.33700116 49.77109351 19.35799826 51.17499368 19.37937927 52.57888794 C19.43433821 56.2580082 19.4838619 59.93718197 19.53222656 63.61639404 C19.58263385 67.37712313 19.63821913 71.13777536 19.69335938 74.8984375 C19.8006203 82.26555975 19.90213521 89.6327463 20 97 C20.68793137 96.85911453 21.37586273 96.71822906 22.0846405 96.57307434 C23.4372271 96.29870796 23.4372271 96.29870796 24.81713867 96.01879883 C25.71132004 95.83666336 26.6055014 95.65452789 27.52677917 95.46687317 C40.63534336 92.99235216 54.10341383 96.56830155 65 104 C71.68711342 109.21418095 77.08217727 115.11179134 82 122 C82.59167969 121.79503906 83.18335938 121.59007812 83.79296875 121.37890625 C84.58316406 121.10949219 85.37335938 120.84007812 86.1875 120.5625 C86.96480469 120.29566406 87.74210937 120.02882812 88.54296875 119.75390625 C101.69325398 115.71892207 115.47465458 117.36085483 127.7109375 123.3203125 C138.727892 129.52370534 146.34582833 137.69165666 152 149 C153.2375 148.67 154.475 148.34 155.75 148 C172.83425032 144.60755601 188.27052528 146.73176129 203 156 C213.36427179 163.32646799 220.62327015 175.24288881 223.58116531 187.50365067 C224.46493423 192.77111303 224.29439341 198.11210418 224.29052734 203.43896484 C224.29652202 204.78710804 224.30332971 206.13524782 224.31088257 207.48338318 C224.32847922 211.13125161 224.33323597 214.77902603 224.33451414 218.42693281 C224.33594277 220.71939136 224.3402263 223.0118266 224.34550858 225.30427933 C224.36400563 233.34186545 224.37218179 241.37938549 224.37060547 249.41699219 C224.36941225 256.83987528 224.39035282 264.26246375 224.4220928 271.68527257 C224.44853894 278.10533358 224.45896072 284.52530031 224.45769465 290.94541514 C224.45719214 294.75802061 224.46246651 298.57036558 224.48405075 302.3829155 C224.58162319 320.90487732 223.54254369 338.76405749 220 357 C219.83332321 357.86289391 219.66664642 358.72578781 219.49491882 359.61483002 C218.52015149 364.5978705 217.45012854 369.55175377 216.3125 374.5 C216.14292786 375.24858276 215.97335571 375.99716553 215.79864502 376.76843262 C210.03952462 402.16739245 203.02075799 427.18494198 195.75 452.1875 C195.45172302 453.21452026 195.15344604 454.24154053 194.84613037 455.29968262 C192.09765656 464.74309845 189.3370713 474.18643162 186.328125 483.55078125 C185.97137695 484.66751221 185.61462891 485.78424316 185.24707031 486.93481445 C182.70769367 493.17637156 179.10009841 497.94995079 173 501 C169.98191109 501.10705794 166.9864432 501.15222186 163.96774292 501.15390015 C162.54644489 501.16047353 162.54644489 501.16047353 161.09643376 501.1671797 C157.90136405 501.18060143 154.70632194 501.18675416 151.51123047 501.19287109 C149.22837702 501.20076948 146.94552482 501.20903826 144.66267395 501.21765137 C137.14752399 501.24390459 129.63236836 501.25918349 122.1171875 501.2734375 C119.53257366 501.27879605 116.94795986 501.28417355 114.3633461 501.28956985 C103.6128856 501.31120448 92.86242837 501.3300929 82.11195183 501.34119225 C79.3213793 501.34412195 76.53080681 501.3470836 73.74023438 501.35009766 C73.04665062 501.35084371 72.35306686 501.35158976 71.63846542 501.35235842 C60.40832983 501.36500605 49.17835279 501.39822012 37.94829129 501.43989949 C26.41753429 501.48234375 14.88688301 501.50548278 3.35604584 501.51111281 C-3.11763052 501.51476896 -9.59103832 501.5268186 -16.06464005 501.55921555 C-22.1566141 501.58926458 -28.24815665 501.59561895 -34.34018898 501.58383179 C-36.57507624 501.58361078 -38.80998333 501.5919379 -41.04480171 501.60948563 C-44.09900107 501.63215971 -47.15163347 501.6238895 -50.20584106 501.60800171 C-51.08776505 501.6218838 -51.96968903 501.63576588 -52.87833798 501.65006864 C-59.00551223 501.57167814 -63.31626068 500.03280846 -68 496 C-69.867292 493.55128185 -71.18604641 491.03089761 -72.5 488.25 C-72.89960938 487.45215088 -73.29921875 486.65430176 -73.7109375 485.83227539 C-75.16790995 482.9008188 -76.58509078 479.95199108 -78 477 C-78.61542168 475.72422281 -79.23133273 474.44868161 -79.84765625 473.17333984 C-80.17268631 472.50076141 -80.49771637 471.82818298 -80.83259583 471.13522339 C-81.1662767 470.44477936 -81.49995758 469.75433533 -81.84375 469.04296875 C-82.52958241 467.62306687 -83.21537291 466.20314474 -83.90112305 464.78320312 C-84.24638031 464.06849854 -84.59163757 463.35379395 -84.94735718 462.61743164 C-85.65081577 461.16063015 -86.35379613 459.70359764 -87.05630493 458.24633789 C-98.52008429 434.47768756 -112.15195689 412.27385258 -126.57128906 390.18945312 C-128.0896308 387.86264371 -129.60385325 385.53319411 -131.1171875 383.203125 C-134.40942475 378.13409324 -137.70448562 373.06690165 -141 368 C-144.8232376 362.12171616 -148.64564948 356.24289938 -152.46533203 350.36230469 C-153.45814145 348.83407944 -154.45128324 347.30607005 -155.44482422 345.77832031 C-166.44171954 328.86534935 -177.24756307 311.85237654 -187.52539062 294.49072266 C-188.50856973 292.83006152 -189.49424959 291.1708784 -190.48242188 289.51318359 C-203.00388633 268.48194565 -214.77977824 247.39113484 -208.9375 222.0625 C-204.65165381 208.96350532 -195.75658298 200.06210751 -184 193.5078125 C-170.68781555 186.81705313 -156.50479833 186.26697695 -142.36328125 190.734375 C-130.22150972 195.30340401 -122.48245744 201.94366076 -114.51953125 211.94140625 C-111.79482353 215.24907469 -108.93169181 218.37709076 -106 221.5 C-101.44512688 226.35848325 -97.16922706 231.33716194 -93.03515625 236.5625 C-90.83021579 239.20334999 -88.44447016 241.58143584 -86 244 C-85.99853344 242.91939206 -85.99706688 241.83878412 -85.99555588 240.72543049 C-85.95891827 214.40002813 -85.89941276 188.07475257 -85.81609726 161.74945545 C-85.77633237 149.01859648 -85.74392687 136.2877991 -85.72900391 123.55688477 C-85.71597423 112.45723146 -85.6889758 101.35771382 -85.64538693 90.25813693 C-85.62280194 84.38406012 -85.60708756 78.51015046 -85.60811615 72.63602638 C-85.6088645 67.09969801 -85.59084326 61.56373871 -85.55883217 56.02750587 C-85.55035933 54.00277389 -85.54856533 51.97800039 -85.55419731 49.95325851 C-85.5970784 32.15780714 -83.07109901 17.26538375 -70.60546875 3.58203125 C-51.10719487 -15.6315963 -21.34717163 -16.08438664 0 0 Z M-43 26 C-46.15621399 28.87169155 -49.82892963 32.44554289 -50.12715852 36.89875656 C-50.12819035 37.67989899 -50.12922217 38.46104142 -50.13028526 39.26585484 C-50.13572178 40.61680173 -50.13572178 40.61680173 -50.14126813 41.99504048 C-50.13966576 43.48872675 -50.13966576 43.48872675 -50.13803101 45.0125885 C-50.14226293 46.59208673 -50.14226293 46.59208673 -50.14658034 48.20349401 C-50.15495768 51.75554304 -50.15626728 55.30756102 -50.15771484 58.85961914 C-50.16238084 61.39700407 -50.16752405 63.93438817 -50.17311096 66.47177124 C-50.18441044 71.94855269 -50.1928866 77.4253276 -50.19923019 82.90211678 C-50.20955059 91.5622422 -50.23011393 100.22232917 -50.25234985 108.88243103 C-50.25983012 111.84491431 -50.26724382 114.80739775 -50.27463722 117.76988125 C-50.27648779 118.5103192 -50.27833835 119.25075715 -50.280245 120.01363261 C-50.3011822 128.4468288 -50.32000421 136.88002925 -50.33789062 145.31323242 C-50.33952881 146.08430985 -50.34116699 146.85538728 -50.34285481 147.64983069 C-50.36911608 160.13371302 -50.38777168 172.6175983 -50.40448253 185.10149653 C-50.42191738 197.91936868 -50.45077981 210.73718294 -50.4893719 223.55500883 C-50.51274627 231.45975174 -50.52676416 239.36440023 -50.52869953 247.26917797 C-50.53106278 253.33306273 -50.54895874 259.39680032 -50.57256889 265.46064377 C-50.57976221 267.94503138 -50.58186271 270.42943982 -50.57846642 272.91383553 C-50.57456695 276.30893537 -50.58904273 279.70348782 -50.60800171 283.098526 C-50.60247201 284.0787018 -50.59694232 285.05887759 -50.59124506 286.06875569 C-50.66243939 293.46927715 -51.64644515 300.01034925 -56.3125 305.9375 C-60.4660502 309.12510829 -63.87188606 310.27106928 -69.0625 309.8125 C-72.58546674 309.25447283 -75.04203824 308.02831663 -78 306 C-78.99 305.67 -79.98 305.34 -81 305 C-81.68438361 303.67567327 -82.34730627 302.34022876 -83 301 C-84.47862855 299.27539921 -86.00563763 297.59181854 -87.5625 295.9375 C-90.97608641 292.26749396 -94.23955183 288.54001115 -97.375 284.625 C-101.24218863 279.8285929 -105.34980716 275.3295854 -109.55810547 270.83642578 C-113.4598253 266.64688433 -117.07317487 262.27836175 -120.65625 257.8125 C-123.81332032 254.02401562 -127.17344485 250.44584744 -130.54760742 246.85131836 C-133.79565455 243.36952403 -136.84378772 239.789827 -139.8125 236.0625 C-146.56679003 227.67671661 -146.56679003 227.67671661 -156 223 C-162.33400415 222.3769832 -166.73270167 223.343163 -172 227 C-174.96886052 230.06163741 -175.26311582 232.9407152 -175.5 237.0625 C-174.66922113 261.985866 -147.7158684 293.63570808 -134.27832031 314.05224609 C-132.00050442 317.52291363 -129.75244103 321.01283479 -127.5 324.5 C-126.58085054 325.92065145 -125.66158007 327.34122462 -124.7421875 328.76171875 C-122.93432906 331.55562347 -121.12707712 334.34991907 -119.3203125 337.14453125 C-114.94108976 343.91705014 -110.55663401 350.68609019 -106.15991211 357.44726562 C-105.05093838 359.15272662 -103.94237888 360.85845702 -102.83422852 362.56445312 C-100.30363234 366.46009651 -97.76997616 370.35354959 -95.22265625 374.23828125 C-75.66972222 404.12700128 -59.68141456 434.71473473 -44 467 C21.34 467 86.68 467 154 467 C156.53290206 461.13158733 156.53290206 461.13158733 158.4987793 455.18334961 C158.75330872 454.29856934 159.00783813 453.41378906 159.27008057 452.50219727 C159.53544617 451.56174561 159.80081177 450.62129395 160.07421875 449.65234375 C160.35916199 448.65589844 160.64410522 447.65945313 160.93768311 446.6328125 C161.85954361 443.40251004 162.77409004 440.17020135 163.6875 436.9375 C164.00091339 435.83254181 164.31432678 434.72758362 164.63723755 433.58914185 C166.77188541 426.06325785 168.89110531 418.53313825 171 411 C171.22937256 410.18192871 171.45874512 409.36385742 171.69506836 408.52099609 C175.79712039 393.87240702 179.52725713 379.16435628 182.8125 364.3125 C183.09085693 363.06009521 183.36921387 361.80769043 183.65600586 360.51733398 C184.3316723 357.38241468 184.97037027 354.24347942 185.58582973 351.09629917 C185.97558864 349.1235567 186.38365164 347.15445584 186.79292297 345.18566895 C189.61901823 330.48622554 189.44339807 315.71433484 189.40297651 300.80874801 C189.39526744 297.06669107 189.40245426 293.32465386 189.40713501 289.58259583 C189.41255161 283.31861323 189.40550063 277.05473773 189.39111328 270.79077148 C189.37470146 263.56213443 189.38015309 256.33375017 189.3965925 249.10511893 C189.41021437 242.86348284 189.4121264 236.62192265 189.40427649 230.3802765 C189.3996157 226.66690404 189.39893287 222.95365055 189.40888596 219.24028587 C189.41917843 215.11470917 189.4049072 210.98956927 189.38818359 206.86401367 C189.39729263 205.03359528 189.39729263 205.03359528 189.40658569 203.16619873 C189.35691912 196.56051545 189.19583423 191.42352725 184.46484375 186.35546875 C178.22147277 181.58112623 173.80633976 181.29405315 166 182 C160.4963091 184.40161058 157.29713383 188.54149034 155 194 C154.31767128 198.47608387 154.37273898 202.88607716 154.43359375 207.40625 C154.42498341 209.36112918 154.41635127 211.31600855 154.40645695 213.27088165 C154.39618779 216.68067593 154.41897265 220.0902634 154.4375 223.5 C154.45578019 227.57251474 154.46616632 231.64463397 154.44776917 235.71716309 C154.43852242 238.24589268 154.44754091 240.77477453 154.47740173 243.30334473 C154.45551698 250.36236282 153.84317391 255.01732266 150 261 C145.90630252 264.99135504 143.1761297 265.83880521 137.625 266.25 C133.01508571 265.93207488 129.88860934 264.86315639 126.55078125 261.5703125 C122.0526832 256.38912219 121.85083301 252.25885927 121.84228516 245.67651367 C121.83720444 244.82739914 121.83212372 243.97828461 121.82688904 243.10343933 C121.81618634 241.25862345 121.80756577 239.4137946 121.80076981 237.56896019 C121.78898019 234.6475738 121.76952681 231.7263352 121.74765015 228.80500793 C121.68603832 220.49855474 121.63200179 212.1921165 121.59863281 203.88549805 C121.57767376 198.80501249 121.54235978 193.72479612 121.49787521 188.64446449 C121.48372415 186.70965051 121.4749948 184.7747889 121.47182083 182.83992577 C121.46690558 180.13022118 121.44373157 177.42122938 121.41650391 174.71166992 C121.41951004 173.91508972 121.42251617 173.11850952 121.4256134 172.29779053 C121.34148822 166.65284925 120.23305883 162.42083878 116.28125 158.13671875 C115.6934375 157.65847656 115.105625 157.18023437 114.5 156.6875 C113.9121875 156.19636719 113.324375 155.70523438 112.71875 155.19921875 C108.55971211 152.29734458 103.85651813 152.55016813 99 153 C94.05200062 154.71276901 90.70048603 157.52406097 88 162 C85.53571191 169.29487106 85.72067069 176.45714348 85.7265625 184.09765625 C85.71798733 185.45951782 85.70798258 186.82137107 85.69662476 188.18321228 C85.6506797 193.92947539 85.62574517 199.67567818 85.61914062 205.42211914 C85.61410785 208.95235205 85.58978081 212.48203644 85.55381393 216.01208305 C85.53935955 217.99441727 85.54662795 219.97687191 85.55435181 221.95924377 C85.47944853 228.82051472 85.28192369 233.50397957 81 239 C76.78473666 242.48823696 72.7532793 243.72067538 67.27734375 243.44921875 C63.18876856 242.6427245 60.08009273 240.76845981 57 238 C53.05130291 231.88588837 52.85325022 225.84420622 52.8581543 218.74072266 C52.85467987 217.92218307 52.85120544 217.10364349 52.84762573 216.26029968 C52.84029171 214.48809101 52.83493383 212.7158733 52.83133507 210.94365311 C52.82414496 208.13524251 52.80846003 205.32700413 52.78999329 202.51864624 C52.73763868 194.53556656 52.68954774 186.55258369 52.67407227 178.56933594 C52.66397639 173.68099323 52.6346151 168.79308824 52.59275246 163.90491867 C52.5804646 162.046292 52.57531715 160.18760348 52.57755089 158.32893753 C52.57991083 155.72484029 52.55768705 153.12199418 52.5300293 150.51806641 C52.53663071 149.75627579 52.54323212 148.99448517 52.55003357 148.20960999 C52.45488499 142.73314807 51.12877196 139.51722604 48 135 C42.517396 130.74818466 37.91289107 129.30212719 31 130 C25.56120134 131.84919155 22.22638275 135.37586838 19 140 C17.90450259 143.28649224 17.8688667 145.72012886 17.8581543 149.18041992 C17.85111984 150.45572067 17.84408539 151.73102142 17.83683777 153.04496765 C17.83502188 153.72656134 17.83320599 154.40815502 17.83133507 155.11040306 C17.82414965 157.25105355 17.80846595 159.39147746 17.78999329 161.53205872 C17.73763485 167.6181011 17.68960257 173.70402064 17.67407227 179.7902832 C17.66394382 183.51577622 17.63449517 187.24069993 17.59275246 190.96596718 C17.58050344 192.37997426 17.57530999 193.79406199 17.57755089 195.20812035 C17.58705757 203.16808309 17.50129127 209.27681639 13 216 C8.5342278 219.93712828 4.1656881 220.56252614 -1.6953125 220.33984375 C-4.65226285 219.90381887 -6.62506926 218.78119805 -9 217 C-9.66 217 -10.32 217 -11 217 C-13.87380949 211.45765314 -15.24985168 207.29219794 -15.2515564 200.96073914 C-15.25452654 200.26382408 -15.25749667 199.56690903 -15.26055682 198.84887534 C-15.26817905 196.51985279 -15.26171014 194.19108375 -15.25537109 191.86206055 C-15.25812185 190.1895938 -15.26180227 188.51712837 -15.26634216 186.84466553 C-15.27444887 183.24554873 -15.27662393 179.64649404 -15.27439499 176.047369 C-15.27156005 170.35288297 -15.28592099 164.65852084 -15.30337524 158.96406555 C-15.35038381 142.77204244 -15.37434007 126.58002777 -15.38085938 110.38793945 C-15.38461273 101.4432234 -15.40266429 92.49864757 -15.43595374 83.55399162 C-15.45614701 77.89693247 -15.4585481 72.24023547 -15.44767356 66.58315504 C-15.44506153 63.0580291 -15.45909454 59.53311285 -15.47775459 56.00804138 C-15.48306509 54.3778847 -15.48159934 52.74768913 -15.47271919 51.11754799 C-15.40199608 37.7805603 -15.40199608 37.7805603 -22.1875 26.625 C-29.15835704 22.59739371 -35.87013595 21.90668218 -43 26 Z " fill="#F8F8F8" transform="translate(249,11)"/>
</svg>
