<?xml version="1.0" encoding="UTF-8"?>
<svg version="1.1" xmlns="http://www.w3.org/2000/svg" width="512" height="512">
<path d="M0 0 C10.26945664 8.56084687 17.1061442 20.75897322 19 34 C19.10942225 36.15309312 19.17502184 38.30869662 19.20532227 40.46435547 C19.22526749 41.72520966 19.24521271 42.98606384 19.26576233 44.28512573 C19.28274134 45.64581177 19.29962033 47.00649906 19.31640625 48.3671875 C19.33700116 49.77109351 19.35799826 51.17499368 19.37937927 52.57888794 C19.43433821 56.2580082 19.4838619 59.93718197 19.53222656 63.61639404 C19.58263385 67.37712313 19.63821913 71.13777536 19.69335938 74.8984375 C19.8006203 82.26555975 19.90213521 89.6327463 20 97 C20.68793137 96.85911453 21.37586273 96.71822906 22.0846405 96.57307434 C23.4372271 96.29870796 23.4372271 96.29870796 24.81713867 96.01879883 C25.71132004 95.83666336 26.6055014 95.65452789 27.52677917 95.46687317 C40.63534336 92.99235216 54.10341383 96.56830155 65 104 C71.68711342 109.21418095 77.08217727 115.11179134 82 122 C82.59167969 121.79503906 83.18335938 121.59007812 83.79296875 121.37890625 C84.58316406 121.10949219 85.37335938 120.84007812 86.1875 120.5625 C86.96480469 120.29566406 87.74210937 120.02882812 88.54296875 119.75390625 C101.69325398 115.71892207 115.47465458 117.36085483 127.7109375 123.3203125 C138.727892 129.52370534 146.34582833 137.69165666 152 149 C153.2375 148.67 154.475 148.34 155.75 148 C172.83425032 144.60755601 188.27052528 146.73176129 203 156 C213.36427179 163.32646799 220.62327015 175.24288881 223.58116531 187.50365067 C224.46493423 192.77111303 224.29439341 198.11210418 224.29052734 203.43896484 C224.29652202 204.78710804 224.30332971 206.13524782 224.31088257 207.48338318 C224.32847922 211.13125161 224.33323597 214.77902603 224.33451414 218.42693281 C224.33594277 220.71939136 224.3402263 223.0118266 224.34550858 225.30427933 C224.36400563 233.34186545 224.37218179 241.37938549 224.37060547 249.41699219 C224.36941225 256.83987528 224.39035282 264.26246375 224.4220928 271.68527257 C224.44853894 278.10533358 224.45896072 284.52530031 224.45769465 290.94541514 C224.45719214 294.75802061 224.46246651 298.57036558 224.48405075 302.3829155 C224.58162319 320.90487732 223.54254369 338.76405749 220 357 C219.83332321 357.86289391 219.66664642 358.72578781 219.49491882 359.61483002 C218.52015149 364.5978705 217.45012854 369.55175377 216.3125 374.5 C216.14292786 375.24858276 215.97335571 375.99716553 215.79864502 376.76843262 C210.03952462 402.16739245 203.02075799 427.18494198 195.75 452.1875 C195.45172302 453.21452026 195.15344604 454.24154053 194.84613037 455.29968262 C192.09765656 464.74309845 189.3370713 474.18643162 186.328125 483.55078125 C185.97137695 484.66751221 185.61462891 485.78424316 185.24707031 486.93481445 C182.70769367 493.17637156 179.10009841 497.94995079 173 501 C169.98191109 501.10705794 166.9864432 501.15222186 163.96774292 501.15390015 C162.54644489 501.16047353 162.54644489 501.16047353 161.09643376 501.1671797 C157.90136405 501.18060143 154.70632194 501.18675416 151.51123047 501.19287109 C149.22837702 501.20076948 146.94552482 501.20903826 144.66267395 501.21765137 C137.14752399 501.24390459 129.63236836 501.25918349 122.1171875 501.2734375 C119.53257366 501.27879605 116.94795986 501.28417355 114.3633461 501.28956985 C103.6128856 501.31120448 92.86242837 501.3300929 82.11195183 501.34119225 C79.3213793 501.34412195 76.53080681 501.3470836 73.74023438 501.35009766 C73.04665062 501.35084371 72.35306686 501.35158976 71.63846542 501.35235842 C60.40832983 501.36500605 49.17835279 501.39822012 37.94829129 501.43989949 C26.41753429 501.48234375 14.88688301 501.50548278 3.35604584 501.51111281 C-3.11763052 501.51476896 -9.59103832 501.5268186 -16.06464005 501.55921555 C-22.1566141 501.58926458 -28.24815665 501.59561895 -34.34018898 501.58383179 C-36.57507624 501.58361078 -38.80998333 501.5919379 -41.04480171 501.60948563 C-44.09900107 501.63215971 -47.15163347 501.6238895 -50.20584106 501.60800171 C-51.08776505 501.6218838 -51.96968903 501.63576588 -52.87833798 501.65006864 C-59.00551223 501.57167814 -63.31626068 500.03280846 -68 496 C-69.867292 493.55128185 -71.18604641 491.03089761 -72.5 488.25 C-72.89960938 487.45215088 -73.29921875 486.65430176 -73.7109375 485.83227539 C-75.16790995 482.9008188 -76.58509078 479.95199108 -78 477 C-78.61542168 475.72422281 -79.23133273 474.44868161 -79.84765625 473.17333984 C-80.17268631 472.50076141 -80.49771637 471.82818298 -80.83259583 471.13522339 C-81.1662767 470.44477936 -81.49995758 469.75433533 -81.84375 469.04296875 C-82.52958241 467.62306687 -83.21537291 466.20314474 -83.90112305 464.78320312 C-84.24638031 464.06849854 -84.59163757 463.35379395 -84.94735718 462.61743164 C-85.65081577 461.16063015 -86.35379613 459.70359764 -87.05630493 458.24633789 C-98.52008429 434.47768756 -112.15195689 412.27385258 -126.57128906 390.18945312 C-128.0896308 387.86264371 -129.60385325 385.53319411 -131.1171875 383.203125 C-134.40942475 378.13409324 -137.70448562 373.06690165 -141 368 C-144.8232376 362.12171616 -148.64564948 356.24289938 -152.46533203 350.36230469 C-153.45814145 348.83407944 -154.45128324 347.30607005 -155.44482422 345.77832031 C-166.44171954 328.86534935 -177.24756307 311.85237654 -187.52539062 294.49072266 C-188.50856973 292.83006152 -189.49424959 291.1708784 -190.48242188 289.51318359 C-203.00388633 268.48194565 -214.77977824 247.39113484 -208.9375 222.0625 C-204.65165381 208.96350532 -195.75658298 200.06210751 -184 193.5078125 C-170.68781555 186.81705313 -156.50479833 186.26697695 -142.36328125 190.734375 C-130.22150972 195.30340401 -122.48245744 201.94366076 -114.51953125 211.94140625 C-111.79482353 215.24907469 -108.93169181 218.37709076 -106 221.5 C-101.44512688 226.35848325 -97.16922706 231.33716194 -93.03515625 236.5625 C-90.83021579 239.20334999 -88.44447016 241.58143584 -86 244 C-85.99853344 242.91939206 -85.99706688 241.83878412 -85.99555588 240.72543049 C-85.95891827 214.40002813 -85.89941276 188.07475257 -85.81609726 161.74945545 C-85.77633237 149.01859648 -85.74392687 136.2877991 -85.72900391 123.55688477 C-85.71597423 112.45723146 -85.6889758 101.35771382 -85.64538693 90.25813693 C-85.62280194 84.38406012 -85.60708756 78.51015046 -85.60811615 72.63602638 C-85.6088645 67.09969801 -85.59084326 61.56373871 -85.55883217 56.02750587 C-85.55035933 54.00277389 -85.54856533 51.97800039 -85.55419731 49.95325851 C-85.5970784 32.15780714 -83.07109901 17.26538375 -70.60546875 3.58203125 C-51.10719487 -15.6315963 -21.34717163 -16.08438664 0 0 Z " fill="#FFC90E" transform="translate(249,11)"/>
<path d="M0 0 C10.26945664 8.56084687 17.1061442 20.75897322 19 34 C19.10942225 36.15309312 19.17502184 38.30869662 19.20532227 40.46435547 C19.22526749 41.72520966 19.24521271 42.98606384 19.26576233 44.28512573 C19.28274134 45.64581177 19.29962033 47.00649906 19.31640625 48.3671875 C19.33700116 49.77109351 19.35799826 51.17499368 19.37937927 52.57888794 C19.43433821 56.2580082 19.4838619 59.93718197 19.53222656 63.61639404 C19.58263385 67.37712313 19.63821913 71.13777536 19.69335938 74.8984375 C19.8006203 82.26555975 19.90213521 89.6327463 20 97 C20.68793137 96.85911453 21.37586273 96.71822906 22.0846405 96.57307434 C23.4372271 96.29870796 23.4372271 96.29870796 24.81713867 96.01879883 C25.71132004 95.83666336 26.6055014 95.65452789 27.52677917 95.46687317 C40.63534336 92.99235216 54.10341383 96.56830155 65 104 C71.68711342 109.21418095 77.08217727 115.11179134 82 122 C82.59167969 121.79503906 83.18335938 121.59007812 83.79296875 121.37890625 C84.58316406 121.10949219 85.37335938 120.84007812 86.1875 120.5625 C86.96480469 120.29566406 87.74210937 120.02882812 88.54296875 119.75390625 C101.69325398 115.71892207 115.47465458 117.36085483 127.7109375 123.3203125 C138.727892 129.52370534 146.34582833 137.69165666 152 149 C153.2375 148.67 154.475 148.34 155.75 148 C172.83425032 144.60755601 188.27052528 146.73176129 203 156 C213.36427179 163.32646799 220.62327015 175.24288881 223.58116531 187.50365067 C224.46493423 192.77111303 224.29439341 198.11210418 224.29052734 203.43896484 C224.29652202 204.78710804 224.30332971 206.13524782 224.31088257 207.48338318 C224.32847922 211.13125161 224.33323597 214.77902603 224.33451414 218.42693281 C224.33594277 220.71939136 224.3402263 223.0118266 224.34550858 225.30427933 C224.36400563 233.34186545 224.37218179 241.37938549 224.37060547 249.41699219 C224.36941225 256.83987528 224.39035282 264.26246375 224.4220928 271.68527257 C224.44853894 278.10533358 224.45896072 284.52530031 224.45769465 290.94541514 C224.45719214 294.75802061 224.46246651 298.57036558 224.48405075 302.3829155 C224.58162319 320.90487732 223.54254369 338.76405749 220 357 C219.83332321 357.86289391 219.66664642 358.72578781 219.49491882 359.61483002 C218.52015149 364.5978705 217.45012854 369.55175377 216.3125 374.5 C216.14292786 375.24858276 215.97335571 375.99716553 215.79864502 376.76843262 C210.03952462 402.16739245 203.02075799 427.18494198 195.75 452.1875 C195.45172302 453.21452026 195.15344604 454.24154053 194.84613037 455.29968262 C192.09765656 464.74309845 189.3370713 474.18643162 186.328125 483.55078125 C185.97137695 484.66751221 185.61462891 485.78424316 185.24707031 486.93481445 C182.70769367 493.17637156 179.10009841 497.94995079 173 501 C169.98191109 501.10705794 166.9864432 501.15222186 163.96774292 501.15390015 C162.54644489 501.16047353 162.54644489 501.16047353 161.09643376 501.1671797 C157.90136405 501.18060143 154.70632194 501.18675416 151.51123047 501.19287109 C149.22837702 501.20076948 146.94552482 501.20903826 144.66267395 501.21765137 C137.14752399 501.24390459 129.63236836 501.25918349 122.1171875 501.2734375 C119.53257366 501.27879605 116.94795986 501.28417355 114.3633461 501.28956985 C103.6128856 501.31120448 92.86242837 501.3300929 82.11195183 501.34119225 C79.3213793 501.34412195 76.53080681 501.3470836 73.74023438 501.35009766 C73.04665062 501.35084371 72.35306686 501.35158976 71.63846542 501.35235842 C60.40832983 501.36500605 49.17835279 501.39822012 37.94829129 501.43989949 C26.41753429 501.48234375 14.88688301 501.50548278 3.35604584 501.51111281 C-3.11763052 501.51476896 -9.59103832 501.5268186 -16.06464005 501.55921555 C-22.1566141 501.58926458 -28.24815665 501.59561895 -34.34018898 501.58383179 C-36.57507624 501.58361078 -38.80998333 501.5919379 -41.04480171 501.60948563 C-44.09900107 501.63215971 -47.15163347 501.6238895 -50.20584106 501.60800171 C-51.08776505 501.6218838 -51.96968903 501.63576588 -52.87833798 501.65006864 C-59.00551223 501.57167814 -63.31626068 500.03280846 -68 496 C-69.867292 493.55128185 -71.18604641 491.03089761 -72.5 488.25 C-72.89960938 487.45215088 -73.29921875 486.65430176 -73.7109375 485.83227539 C-75.16790995 482.9008188 -76.58509078 479.95199108 -78 477 C-78.61542168 475.72422281 -79.23133273 474.44868161 -79.84765625 473.17333984 C-80.17268631 472.50076141 -80.49771637 471.82818298 -80.83259583 471.13522339 C-81.1662767 470.44477936 -81.49995758 469.75433533 -81.84375 469.04296875 C-82.52958241 467.62306687 -83.21537291 466.20314474 -83.90112305 464.78320312 C-84.24638031 464.06849854 -84.59163757 463.35379395 -84.94735718 462.61743164 C-85.65081577 461.16063015 -86.35379613 459.70359764 -87.05630493 458.24633789 C-98.52008429 434.47768756 -112.15195689 412.27385258 -126.57128906 390.18945312 C-128.0896308 387.86264371 -129.60385325 385.53319411 -131.1171875 383.203125 C-134.40942475 378.13409324 -137.70448562 373.06690165 -141 368 C-144.8232376 362.12171616 -148.64564948 356.24289938 -152.46533203 350.36230469 C-153.45814145 348.83407944 -154.45128324 347.30607005 -155.44482422 345.77832031 C-166.44171954 328.86534935 -177.24756307 311.85237654 -187.52539062 294.49072266 C-188.50856973 292.83006152 -189.49424959 291.1708784 -190.48242188 289.51318359 C-203.00388633 268.48194565 -214.77977824 247.39113484 -208.9375 222.0625 C-204.65165381 208.96350532 -195.75658298 200.06210751 -184 193.5078125 C-170.68781555 186.81705313 -156.50479833 186.26697695 -142.36328125 190.734375 C-130.22150972 195.30340401 -122.48245744 201.94366076 -114.51953125 211.94140625 C-111.79482353 215.24907469 -108.93169181 218.37709076 -106 221.5 C-101.44512688 226.35848325 -97.16922706 231.33716194 -93.03515625 236.5625 C-90.83021579 239.20334999 -88.44447016 241.58143584 -86 244 C-85.99853344 242.91939206 -85.99706688 241.83878412 -85.99555588 240.72543049 C-85.95891827 214.40002813 -85.89941276 188.07475257 -85.81609726 161.74945545 C-85.77633237 149.01859648 -85.74392687 136.2877991 -85.72900391 123.55688477 C-85.71597423 112.45723146 -85.6889758 101.35771382 -85.64538693 90.25813693 C-85.62280194 84.38406012 -85.60708756 78.51015046 -85.60811615 72.63602638 C-85.6088645 67.09969801 -85.59084326 61.56373871 -85.55883217 56.02750587 C-85.55035933 54.00277389 -85.54856533 51.97800039 -85.55419731 49.95325851 C-85.5970784 32.15780714 -83.07109901 17.26538375 -70.60546875 3.58203125 C-51.10719487 -15.6315963 -21.34717163 -16.08438664 0 0 Z M-45 29 C-49.24723576 34.86602738 -49.56993964 39.49536953 -49.49879456 46.61386108 C-49.50417911 47.67113203 -49.50956366 48.72840297 -49.51511139 49.81771243 C-49.52836782 53.35446067 -49.51324349 56.8905131 -49.49829102 60.42724609 C-49.50211458 62.96537088 -49.50773394 65.5034935 -49.51501465 68.04161072 C-49.52696649 73.50473214 -49.52695278 78.96764666 -49.51642036 84.43076706 C-49.50145779 92.33921628 -49.51141282 100.24748652 -49.52793955 108.15592559 C-49.55438585 121.00076511 -49.56526006 133.84556442 -49.56420898 146.69042969 C-49.56415066 147.45867961 -49.56409234 148.22692953 -49.56403225 149.01845975 C-49.56376641 152.13107316 -49.56344913 155.24368656 -49.56306899 158.35629996 C-49.56210304 166.92047656 -49.56343025 175.48465194 -49.56616211 184.04882812 C-49.56652195 185.19888437 -49.56652195 185.19888437 -49.56688906 186.37217407 C-49.57129949 199.16758931 -49.58754809 211.96296726 -49.6113829 224.75836051 C-49.62543445 232.64426785 -49.6283507 240.53003324 -49.61676001 248.41594543 C-49.60855493 254.46137245 -49.61530681 260.50668622 -49.62744904 266.55211067 C-49.62985469 269.02844987 -49.62712157 271.50480026 -49.61884117 273.98112679 C-49.60820381 277.36498474 -49.61598442 280.74833002 -49.62818909 284.13217163 C-49.62061303 285.10893683 -49.61303698 286.08570203 -49.60523134 287.09206617 C-49.66343957 294.71855439 -50.55755975 301.84352999 -56.0625 307.5 C-60.37114358 310.76329757 -64.69120557 311.33441225 -70 311 C-80.35103096 309.33475187 -86.39476463 299.6182503 -92.515625 291.98828125 C-95.23705157 288.71486721 -98.08956859 285.60436848 -101 282.5 C-105.43857481 277.76157789 -109.59144051 272.8787843 -113.65625 267.8125 C-116.81869389 264.01756733 -120.18678459 260.43556921 -123.56298828 256.83154297 C-126.63993614 253.52804738 -129.5566507 250.15579447 -132.375 246.625 C-136.17614483 241.91185888 -140.15874737 237.39846333 -144.25 232.9375 C-144.84087402 232.28152832 -145.43174805 231.62555664 -146.04052734 230.94970703 C-150.1591287 226.50935816 -153.14879834 224.32277755 -159.3125 223.625 C-164.88857758 224.19205874 -169.18946424 226.01972651 -173 230.1875 C-175.88476326 238.30089666 -173.29907154 245.40436666 -170 253 C-167.56519906 257.66655441 -164.89721733 262.17805287 -162.1875 266.6875 C-161.42972349 267.96294754 -160.6724066 269.23866825 -159.91552734 270.51464844 C-149.79173962 287.52803556 -139.22360462 304.26655133 -128.40527344 320.84570312 C-126.32239191 324.03877932 -124.24576284 327.23591188 -122.16845703 330.43261719 C-121.05772881 332.1417799 -119.94672695 333.85076483 -118.83544922 335.55957031 C-114.93422567 341.55878519 -111.04225552 347.56390311 -107.15966797 353.57519531 C-104.74456257 357.31229894 -102.32010269 361.04294547 -99.8828125 364.765625 C-92.05952355 376.72544699 -84.42861086 388.79081666 -77 401 C-76.55027832 401.73814941 -76.10055664 402.47629883 -75.63720703 403.23681641 C-64.58082556 421.46875178 -55.12935742 440.48318621 -46.06225586 459.76782227 C-45.06764389 461.85785612 -44.03513231 463.92973538 -43 466 C22.01 466 87.02 466 154 466 C163.39917778 434.1993357 163.39917778 434.1993357 172.25 402.25 C172.49192078 401.34192596 172.73384155 400.43385193 172.98309326 399.4982605 C176.5009928 386.25172715 179.72935884 372.95889372 182.625 359.5625 C182.78762329 358.81335327 182.95024658 358.06420654 183.11779785 357.2923584 C186.14341016 343.24805168 188.30140099 329.53764056 188.29052734 315.12915039 C188.29724457 313.82161804 188.30396179 312.51408569 188.31088257 311.16693115 C188.32832246 307.62812749 188.33322789 304.08942086 188.33451414 300.55057836 C188.33594657 298.33361472 188.34023608 296.11667497 188.34550858 293.89971733 C188.36392119 286.1498447 188.37218845 278.40004027 188.37060547 270.65014648 C188.36939974 263.44715725 188.39060862 256.24446551 188.4220928 249.04155165 C188.44826616 242.83058146 188.45897264 236.61970862 188.45769465 230.40868372 C188.45718623 226.71023065 188.46280558 223.01204396 188.48405075 219.31364632 C188.5070622 215.19725247 188.49790598 211.08152836 188.48583984 206.96508789 C188.49707886 205.74989975 188.50831787 204.53471161 188.51989746 203.28269958 C188.47036659 196.63860622 188.07523475 192.34974732 184 187 C179.20709653 183.26153529 175.42415138 182.34656618 169.36328125 182.61328125 C164.5425955 183.40212074 161.85575122 186.05173513 158.6875 189.5625 C156.08500445 193.32166024 155.8734073 196.16991201 155.8581543 200.62963867 C155.85111984 201.78481491 155.84408539 202.93999115 155.83683777 204.13017273 C155.83059135 206.00513176 155.83059135 206.00513176 155.82421875 207.91796875 C155.80695913 209.88371095 155.78967568 211.84945327 155.77101612 213.81518269 C155.72551923 218.6613451 155.68773522 223.50739558 155.67407227 228.35375977 C155.66591025 231.07119284 155.6472636 233.78816891 155.61714172 236.50544739 C155.58909603 239.0618726 155.57606667 241.61851859 155.58000183 244.1750946 C155.48058006 251.23452583 154.89100229 256.03679329 151 262 C146.23290903 265.79421526 142.32844842 267.37166683 136.19140625 267.28125 C131.0109382 266.6163771 127.10937947 264.16627073 123.5625 260.4375 C120.68752116 255.95253301 120.8547498 251.85644029 120.8581543 246.70825195 C120.85294266 245.43939903 120.85294266 245.43939903 120.84762573 244.14491272 C120.84027158 242.30664541 120.83492438 240.46836923 120.83133507 238.63009071 C120.82416528 235.71655218 120.80849369 232.80318163 120.78999329 229.88969421 C120.73755592 221.60527891 120.68957345 213.32095456 120.67407227 205.03637695 C120.66396869 199.96879494 120.63458169 194.90163425 120.59275246 189.83421898 C120.58046917 187.90664042 120.5753163 185.97900228 120.57755089 184.05138588 C120.57991419 181.34671006 120.55765905 178.6432339 120.5300293 175.9387207 C120.53663071 175.14933105 120.54323212 174.35994141 120.55003357 173.54663086 C120.44410428 167.19895913 118.687521 161.71010521 114.140625 157.125 C109.13151288 154.1443713 105.83197821 153.24748668 100 154 C94.84608257 155.81902968 92.09385659 158.53109604 89 163 C86.2604317 169.86261263 86.72105261 176.92409519 86.7265625 184.21875 C86.71799052 185.60446092 86.70798672 186.99016364 86.69662476 188.37585449 C86.65061854 194.23051103 86.62574933 200.08510995 86.61914062 205.93994141 C86.61410817 209.53385573 86.58977949 213.12723119 86.55381393 216.72096252 C86.53935093 218.74096589 86.54663032 220.76108754 86.55435181 222.78112793 C86.48020512 229.70306143 86.27915329 234.42821197 82 240 C77.79841561 243.58979052 72.6655129 244.66948342 67.23828125 244.37890625 C63.38103953 243.72593514 59.99133267 242.55576389 57 240 C53.37059696 234.65144665 52.41682066 230.92331958 52.48583984 224.52954102 C52.47871475 223.71231567 52.47158966 222.89509033 52.46424866 222.05310059 C52.44505637 219.36978566 52.45323118 216.68726647 52.4609375 214.00390625 C52.45102278 212.12734332 52.43907859 210.25079013 52.42520142 208.37425232 C52.39289163 203.4437546 52.38245261 198.51347889 52.37835693 193.58288574 C52.36959101 185.69578614 52.33393628 177.80886853 52.2861824 169.92191887 C52.2736555 167.17668131 52.27435034 164.43167681 52.27645874 161.68641663 C52.26987366 159.99089381 52.26286647 158.29537256 52.25537109 156.59985352 C52.25949509 155.84480026 52.26361908 155.08974701 52.26786804 154.31181335 C52.22100692 148.07783722 51.67024232 141.78481842 47.75 136.6875 C43.86841202 132.89412992 40.91902515 131.20560984 35.5 130.625 C28.79803392 131.34306779 25.36348313 134.29724854 21.19921875 139.28125 C18.74257483 142.80217289 18.8661662 146.05791194 18.84228516 150.2121582 C18.83202301 151.49391434 18.82176086 152.77567047 18.81118774 154.0962677 C18.80774982 154.78110544 18.8043119 155.46594318 18.80076981 156.17153358 C18.78895666 158.3200303 18.76949704 160.46832819 18.74765015 162.616745 C18.68612088 168.7248163 18.63204411 174.83286711 18.59863281 180.94116211 C18.57763573 184.67953909 18.54229205 188.41755284 18.49787521 192.15572166 C18.48375414 193.57696431 18.47500158 194.99827122 18.47182083 196.41958046 C18.46688812 198.41301888 18.44207802 200.40637773 18.41650391 202.3996582 C18.40437363 204.0981768 18.40437363 204.0981768 18.39199829 205.83100891 C17.86570017 210.08570618 16.40079111 213.46423683 13.5 216.64453125 C7.71500171 221.14899606 3.13833072 221.60229665 -4 221 C-9.28097404 219.20646165 -11.79895251 216.39000798 -15 212 C-16.15845726 208.52462821 -16.13057648 205.8181217 -16.13803101 202.14982605 C-16.14085229 201.44912516 -16.14367357 200.74842428 -16.14658034 200.02649003 C-16.15492947 197.67284094 -16.15626486 195.31923887 -16.15771484 192.96557617 C-16.16238284 191.28030769 -16.16752637 189.59504047 -16.17311096 187.90977478 C-16.184395 184.27735195 -16.19282771 180.64493733 -16.19923019 177.01250267 C-16.2099052 171.26833917 -16.23014868 165.52423467 -16.25234985 159.78010559 C-16.31429103 143.44482118 -16.36829101 127.10954015 -16.40136719 110.77416992 C-16.41971008 101.75478561 -16.44864152 92.73550001 -16.4893719 83.71618825 C-16.51044673 78.94289478 -16.52589985 74.16972574 -16.52817917 69.39638329 C-16.530326 64.90574759 -16.54619897 60.415371 -16.57256889 55.92481422 C-16.57976188 54.27770033 -16.58186285 52.63055505 -16.57846642 50.98342896 C-16.57456645 48.7323548 -16.58904221 46.48210604 -16.60800171 44.23112488 C-16.61296693 42.34268498 -16.61296693 42.34268498 -16.61803246 40.41609478 C-17.11074202 36.00958798 -18.49255311 32.61484769 -21.53515625 29.35546875 C-29.19917811 23.49474615 -37.16832153 22.89129079 -45 29 Z " fill="#000000" transform="translate(249,11)"/>
</svg>
